<mxfile host="app.diagrams.net" modified="2022-09-24T05:27:10.909Z" agent="5.0 (Windows NT 10.0; Win64; x64) AppleWebKit/537.36 (KHTML, like Gecko) Chrome/105.0.0.0 Safari/537.36 Edg/105.0.1343.33" etag="hOEVzmcfP__BiR0Mw_Gq" version="20.3.0" type="github" pages="3">
  <diagram id="zfno4h7Ft4TAktyHz9Io" name="第 1 页">
    <mxGraphModel dx="1038" dy="547" grid="1" gridSize="10" guides="1" tooltips="1" connect="1" arrows="1" fold="1" page="1" pageScale="1" pageWidth="827" pageHeight="1169" math="0" shadow="0">
      <root>
        <mxCell id="0" />
        <mxCell id="1" parent="0" />
        <mxCell id="aONjI1VKeHYY18MSqKDY-1" value="" style="edgeStyle=orthogonalEdgeStyle;rounded=0;orthogonalLoop=1;jettySize=auto;html=1;fontSize=16;entryX=0.5;entryY=0;entryDx=0;entryDy=0;" parent="1" source="aONjI1VKeHYY18MSqKDY-2" target="aONjI1VKeHYY18MSqKDY-4" edge="1">
          <mxGeometry relative="1" as="geometry" />
        </mxCell>
        <mxCell id="aONjI1VKeHYY18MSqKDY-2" value="&lt;font style=&quot;font-size: 16px;&quot;&gt;start&lt;/font&gt;" style="ellipse;whiteSpace=wrap;html=1;aspect=fixed;fillColor=#d5e8d4;strokeColor=#82b366;" parent="1" vertex="1">
          <mxGeometry x="432.5" y="30" width="50" height="50" as="geometry" />
        </mxCell>
        <mxCell id="aONjI1VKeHYY18MSqKDY-3" value="&lt;font style=&quot;font-size: 16px;&quot;&gt;end&lt;br&gt;&lt;/font&gt;" style="ellipse;whiteSpace=wrap;html=1;aspect=fixed;fillColor=#f8cecc;strokeColor=#b85450;gradientColor=#ea6b66;" parent="1" vertex="1">
          <mxGeometry x="432.5" y="585" width="50" height="50" as="geometry" />
        </mxCell>
        <mxCell id="aONjI1VKeHYY18MSqKDY-4" value="get plan action&lt;br&gt;&amp;amp; control action" style="rounded=1;whiteSpace=wrap;html=1;fontSize=16;fillColor=#dae8fc;strokeColor=#6c8ebf;" parent="1" vertex="1">
          <mxGeometry x="397.5" y="100" width="120" height="60" as="geometry" />
        </mxCell>
        <mxCell id="aONjI1VKeHYY18MSqKDY-5" value="判断plan action的值" style="rhombus;whiteSpace=wrap;html=1;fontSize=16;fillColor=#f8cecc;strokeColor=#b85450;" parent="1" vertex="1">
          <mxGeometry x="370" y="180" width="175" height="60" as="geometry" />
        </mxCell>
        <mxCell id="aONjI1VKeHYY18MSqKDY-6" value="" style="edgeStyle=orthogonalEdgeStyle;rounded=0;orthogonalLoop=1;jettySize=auto;html=1;fontSize=16;" parent="1" source="aONjI1VKeHYY18MSqKDY-7" target="aONjI1VKeHYY18MSqKDY-15" edge="1">
          <mxGeometry relative="1" as="geometry">
            <Array as="points">
              <mxPoint x="425" y="270" />
            </Array>
          </mxGeometry>
        </mxCell>
        <mxCell id="aONjI1VKeHYY18MSqKDY-7" value="judge plan action" style="rhombus;whiteSpace=wrap;html=1;fontSize=16;fillColor=#f8cecc;strokeColor=#b85450;" parent="1" vertex="1">
          <mxGeometry x="150" y="240" width="180" height="60" as="geometry" />
        </mxCell>
        <mxCell id="aONjI1VKeHYY18MSqKDY-8" value="" style="endArrow=classic;html=1;rounded=0;fontSize=16;exitX=0.5;exitY=1;exitDx=0;exitDy=0;entryX=0.5;entryY=0;entryDx=0;entryDy=0;" parent="1" source="aONjI1VKeHYY18MSqKDY-4" target="aONjI1VKeHYY18MSqKDY-5" edge="1">
          <mxGeometry width="50" height="50" relative="1" as="geometry">
            <mxPoint x="200" y="230" as="sourcePoint" />
            <mxPoint x="250" y="180" as="targetPoint" />
          </mxGeometry>
        </mxCell>
        <mxCell id="aONjI1VKeHYY18MSqKDY-9" value="" style="endArrow=classic;html=1;rounded=0;fontSize=16;exitX=0;exitY=0.5;exitDx=0;exitDy=0;entryX=0.5;entryY=0;entryDx=0;entryDy=0;" parent="1" source="aONjI1VKeHYY18MSqKDY-5" target="aONjI1VKeHYY18MSqKDY-7" edge="1">
          <mxGeometry width="50" height="50" relative="1" as="geometry">
            <mxPoint x="230" y="230" as="sourcePoint" />
            <mxPoint x="280" y="180" as="targetPoint" />
            <Array as="points">
              <mxPoint x="240" y="210" />
            </Array>
          </mxGeometry>
        </mxCell>
        <mxCell id="aONjI1VKeHYY18MSqKDY-10" value="" style="edgeStyle=orthogonalEdgeStyle;rounded=0;orthogonalLoop=1;jettySize=auto;html=1;fontSize=16;" parent="1" source="aONjI1VKeHYY18MSqKDY-11" target="aONjI1VKeHYY18MSqKDY-13" edge="1">
          <mxGeometry relative="1" as="geometry" />
        </mxCell>
        <mxCell id="aONjI1VKeHYY18MSqKDY-11" value="plan action = control action&lt;br&gt;control action = &quot;MAINTAIN&quot;&lt;br&gt;observe action = &quot;WATCHINGMIRROR&quot;" style="rounded=1;whiteSpace=wrap;html=1;fontSize=16;fillColor=#dae8fc;strokeColor=#6c8ebf;" parent="1" vertex="1">
          <mxGeometry x="70" y="360" width="340" height="60" as="geometry" />
        </mxCell>
        <mxCell id="aONjI1VKeHYY18MSqKDY-12" value="" style="edgeStyle=orthogonalEdgeStyle;rounded=0;orthogonalLoop=1;jettySize=auto;html=1;fontSize=16;" parent="1" source="aONjI1VKeHYY18MSqKDY-13" target="aONjI1VKeHYY18MSqKDY-15" edge="1">
          <mxGeometry relative="1" as="geometry" />
        </mxCell>
        <mxCell id="aONjI1VKeHYY18MSqKDY-13" value="合并左后/右后方区域的perception" style="rounded=1;whiteSpace=wrap;html=1;fontSize=16;fillColor=#dae8fc;strokeColor=#6c8ebf;" parent="1" vertex="1">
          <mxGeometry x="172.5" y="480" width="135" height="60" as="geometry" />
        </mxCell>
        <mxCell id="aONjI1VKeHYY18MSqKDY-14" value="" style="edgeStyle=orthogonalEdgeStyle;rounded=0;orthogonalLoop=1;jettySize=auto;html=1;fontSize=16;" parent="1" source="aONjI1VKeHYY18MSqKDY-15" target="aONjI1VKeHYY18MSqKDY-3" edge="1">
          <mxGeometry relative="1" as="geometry" />
        </mxCell>
        <mxCell id="aONjI1VKeHYY18MSqKDY-15" value="执行control action" style="rounded=1;whiteSpace=wrap;html=1;fontSize=16;fillColor=#dae8fc;strokeColor=#6c8ebf;" parent="1" vertex="1">
          <mxGeometry x="390" y="480" width="135" height="60" as="geometry" />
        </mxCell>
        <mxCell id="aONjI1VKeHYY18MSqKDY-16" value="plan action = NULL&lt;br&gt;control action = &quot;MAINTAIN&quot;&lt;br&gt;&lt;span style=&quot;font-size: 13px;&quot;&gt;observe action = &quot;WATCHFRONT&quot;&lt;/span&gt;" style="rounded=1;whiteSpace=wrap;html=1;fontSize=16;fillColor=#dae8fc;strokeColor=#6c8ebf;" parent="1" vertex="1">
          <mxGeometry x="720" y="360" width="210" height="60" as="geometry" />
        </mxCell>
        <mxCell id="aONjI1VKeHYY18MSqKDY-17" value="" style="edgeStyle=orthogonalEdgeStyle;rounded=0;orthogonalLoop=1;jettySize=auto;html=1;fontSize=16;" parent="1" source="aONjI1VKeHYY18MSqKDY-18" target="aONjI1VKeHYY18MSqKDY-15" edge="1">
          <mxGeometry relative="1" as="geometry">
            <Array as="points">
              <mxPoint x="500" y="460" />
              <mxPoint x="500" y="460" />
            </Array>
          </mxGeometry>
        </mxCell>
        <mxCell id="aONjI1VKeHYY18MSqKDY-18" value="control action = plan action&lt;br&gt;plan action = NULL&lt;br&gt;&lt;font style=&quot;font-size: 13px;&quot;&gt;observe action = &quot;WATCHFRONT&quot;&lt;/font&gt;" style="rounded=1;whiteSpace=wrap;html=1;fontSize=16;fillColor=#dae8fc;strokeColor=#6c8ebf;" parent="1" vertex="1">
          <mxGeometry x="450" y="360" width="210" height="60" as="geometry" />
        </mxCell>
        <mxCell id="aONjI1VKeHYY18MSqKDY-19" value="判断perception的entropy大小" style="rhombus;whiteSpace=wrap;html=1;fontSize=16;fillColor=#f8cecc;strokeColor=#b85450;" parent="1" vertex="1">
          <mxGeometry x="580" y="240" width="260" height="60" as="geometry" />
        </mxCell>
        <mxCell id="aONjI1VKeHYY18MSqKDY-20" value="NULL" style="text;html=1;align=center;verticalAlign=middle;resizable=0;points=[];autosize=1;strokeColor=none;fillColor=none;fontSize=16;" parent="1" vertex="1">
          <mxGeometry x="250" y="175" width="60" height="30" as="geometry" />
        </mxCell>
        <mxCell id="aONjI1VKeHYY18MSqKDY-21" value="" style="endArrow=classic;html=1;rounded=0;fontSize=16;exitX=1;exitY=0.5;exitDx=0;exitDy=0;entryX=0.5;entryY=0;entryDx=0;entryDy=0;" parent="1" source="aONjI1VKeHYY18MSqKDY-5" target="aONjI1VKeHYY18MSqKDY-19" edge="1">
          <mxGeometry width="50" height="50" relative="1" as="geometry">
            <mxPoint x="530" y="200" as="sourcePoint" />
            <mxPoint x="580" y="150" as="targetPoint" />
            <Array as="points">
              <mxPoint x="710" y="210" />
            </Array>
          </mxGeometry>
        </mxCell>
        <mxCell id="aONjI1VKeHYY18MSqKDY-22" value="turn left / turn right" style="text;html=1;align=center;verticalAlign=middle;resizable=0;points=[];autosize=1;strokeColor=none;fillColor=none;fontSize=16;" parent="1" vertex="1">
          <mxGeometry x="535" y="175" width="150" height="30" as="geometry" />
        </mxCell>
        <mxCell id="aONjI1VKeHYY18MSqKDY-23" value="" style="endArrow=classic;html=1;rounded=0;fontSize=16;exitX=0.5;exitY=1;exitDx=0;exitDy=0;" parent="1" source="aONjI1VKeHYY18MSqKDY-7" target="aONjI1VKeHYY18MSqKDY-11" edge="1">
          <mxGeometry width="50" height="50" relative="1" as="geometry">
            <mxPoint x="110" y="340" as="sourcePoint" />
            <mxPoint x="160" y="290" as="targetPoint" />
          </mxGeometry>
        </mxCell>
        <mxCell id="aONjI1VKeHYY18MSqKDY-24" value="slide left / slide right" style="text;html=1;align=center;verticalAlign=middle;resizable=0;points=[];autosize=1;strokeColor=none;fillColor=none;fontSize=16;" parent="1" vertex="1">
          <mxGeometry x="84" y="300" width="160" height="30" as="geometry" />
        </mxCell>
        <mxCell id="aONjI1VKeHYY18MSqKDY-25" value="others" style="text;html=1;align=center;verticalAlign=middle;resizable=0;points=[];autosize=1;strokeColor=none;fillColor=none;fontSize=16;" parent="1" vertex="1">
          <mxGeometry x="340" y="245" width="70" height="30" as="geometry" />
        </mxCell>
        <mxCell id="aONjI1VKeHYY18MSqKDY-26" value="" style="endArrow=classic;html=1;rounded=0;fontSize=16;exitX=0;exitY=0.5;exitDx=0;exitDy=0;entryX=0.381;entryY=0;entryDx=0;entryDy=0;entryPerimeter=0;" parent="1" source="aONjI1VKeHYY18MSqKDY-19" target="aONjI1VKeHYY18MSqKDY-18" edge="1">
          <mxGeometry width="50" height="50" relative="1" as="geometry">
            <mxPoint x="530" y="480" as="sourcePoint" />
            <mxPoint x="580" y="430" as="targetPoint" />
            <Array as="points">
              <mxPoint x="530" y="270" />
            </Array>
          </mxGeometry>
        </mxCell>
        <mxCell id="aONjI1VKeHYY18MSqKDY-27" value="entropy &amp;lt; E" style="text;html=1;align=center;verticalAlign=middle;resizable=0;points=[];autosize=1;strokeColor=none;fillColor=none;fontSize=16;" parent="1" vertex="1">
          <mxGeometry x="490" y="240" width="110" height="30" as="geometry" />
        </mxCell>
        <mxCell id="aONjI1VKeHYY18MSqKDY-28" value="" style="endArrow=classic;html=1;rounded=0;fontSize=16;exitX=0.5;exitY=1;exitDx=0;exitDy=0;entryX=1;entryY=0.5;entryDx=0;entryDy=0;" parent="1" source="aONjI1VKeHYY18MSqKDY-16" target="aONjI1VKeHYY18MSqKDY-15" edge="1">
          <mxGeometry width="50" height="50" relative="1" as="geometry">
            <mxPoint x="680" y="510" as="sourcePoint" />
            <mxPoint x="730" y="460" as="targetPoint" />
            <Array as="points">
              <mxPoint x="825" y="510" />
            </Array>
          </mxGeometry>
        </mxCell>
        <mxCell id="aONjI1VKeHYY18MSqKDY-29" value="" style="endArrow=classic;html=1;rounded=0;fontSize=16;exitX=1;exitY=0.5;exitDx=0;exitDy=0;entryX=0.75;entryY=0;entryDx=0;entryDy=0;" parent="1" source="aONjI1VKeHYY18MSqKDY-19" target="aONjI1VKeHYY18MSqKDY-16" edge="1">
          <mxGeometry width="50" height="50" relative="1" as="geometry">
            <mxPoint x="820" y="320" as="sourcePoint" />
            <mxPoint x="870" y="270" as="targetPoint" />
            <Array as="points">
              <mxPoint x="878" y="270" />
            </Array>
          </mxGeometry>
        </mxCell>
        <mxCell id="aONjI1VKeHYY18MSqKDY-30" value="entropy &amp;gt; E" style="text;html=1;align=center;verticalAlign=middle;resizable=0;points=[];autosize=1;strokeColor=none;fillColor=none;fontSize=16;" parent="1" vertex="1">
          <mxGeometry x="810" y="240" width="110" height="30" as="geometry" />
        </mxCell>
        <mxCell id="aONjI1VKeHYY18MSqKDY-31" value="&lt;font style=&quot;font-size: 20px;&quot;&gt;Observe Decision模块&lt;/font&gt;" style="text;html=1;align=center;verticalAlign=middle;resizable=0;points=[];autosize=1;strokeColor=none;fillColor=none;fontSize=13;" parent="1" vertex="1">
          <mxGeometry x="72" y="92" width="216" height="36" as="geometry" />
        </mxCell>
      </root>
    </mxGraphModel>
  </diagram>
  <diagram id="bk6huV0zCKdNBijqeMal" name="第 2 页">
    <mxGraphModel dx="1038" dy="547" grid="0" gridSize="10" guides="1" tooltips="1" connect="1" arrows="1" fold="1" page="1" pageScale="1" pageWidth="827" pageHeight="1169" math="0" shadow="0">
      <root>
        <mxCell id="0" />
        <mxCell id="1" parent="0" />
        <mxCell id="fyv-fUSolpa7-RwwBOui-1" value="" style="shape=crossbar;whiteSpace=wrap;html=1;rounded=1;" parent="1" vertex="1">
          <mxGeometry x="240" y="180" width="160" height="20" as="geometry" />
        </mxCell>
        <mxCell id="fyv-fUSolpa7-RwwBOui-2" value="" style="shape=crossbar;whiteSpace=wrap;html=1;rounded=1;" parent="1" vertex="1">
          <mxGeometry x="400" y="180" width="40" height="20" as="geometry" />
        </mxCell>
        <mxCell id="fyv-fUSolpa7-RwwBOui-3" value="&lt;font style=&quot;font-size: 14px;&quot;&gt;5&lt;/font&gt;" style="text;html=1;align=center;verticalAlign=middle;resizable=0;points=[];autosize=1;strokeColor=none;fillColor=none;" parent="1" vertex="1">
          <mxGeometry x="224" y="200" width="30" height="30" as="geometry" />
        </mxCell>
        <mxCell id="fyv-fUSolpa7-RwwBOui-4" value="&lt;font style=&quot;font-size: 14px;&quot;&gt;1&lt;/font&gt;" style="text;html=1;align=center;verticalAlign=middle;resizable=0;points=[];autosize=1;strokeColor=none;fillColor=none;" parent="1" vertex="1">
          <mxGeometry x="384" y="200" width="30" height="30" as="geometry" />
        </mxCell>
        <mxCell id="fyv-fUSolpa7-RwwBOui-5" value="0" style="text;html=1;align=center;verticalAlign=middle;resizable=0;points=[];autosize=1;strokeColor=none;fillColor=none;fontSize=14;" parent="1" vertex="1">
          <mxGeometry x="425" y="200" width="30" height="30" as="geometry" />
        </mxCell>
        <mxCell id="fyv-fUSolpa7-RwwBOui-6" value="&lt;span style=&quot;font-size: 14px;&quot;&gt;cAction&lt;/span&gt;" style="text;html=1;align=center;verticalAlign=middle;resizable=0;points=[];autosize=1;strokeColor=none;fillColor=none;" parent="1" vertex="1">
          <mxGeometry x="364" y="260" width="70" height="30" as="geometry" />
        </mxCell>
        <mxCell id="fyv-fUSolpa7-RwwBOui-7" value="&lt;span style=&quot;font-size: 14px;&quot;&gt;oAction&lt;/span&gt;" style="text;html=1;align=center;verticalAlign=middle;resizable=0;points=[];autosize=1;" parent="1" vertex="1">
          <mxGeometry x="285" y="120" width="70" height="30" as="geometry" />
        </mxCell>
        <mxCell id="fyv-fUSolpa7-RwwBOui-8" value="&lt;font style=&quot;font-size: 14px;&quot;&gt;4&lt;/font&gt;" style="text;html=1;align=center;verticalAlign=middle;resizable=0;points=[];autosize=1;strokeColor=none;fillColor=none;" parent="1" vertex="1">
          <mxGeometry x="265" y="200" width="30" height="30" as="geometry" />
        </mxCell>
        <mxCell id="fyv-fUSolpa7-RwwBOui-10" value="&lt;font style=&quot;font-size: 14px;&quot;&gt;3&lt;/font&gt;" style="text;html=1;align=center;verticalAlign=middle;resizable=0;points=[];autosize=1;strokeColor=none;fillColor=none;" parent="1" vertex="1">
          <mxGeometry x="305" y="200" width="30" height="30" as="geometry" />
        </mxCell>
        <mxCell id="fyv-fUSolpa7-RwwBOui-11" value="&lt;font style=&quot;font-size: 14px;&quot;&gt;2&lt;/font&gt;" style="text;html=1;align=center;verticalAlign=middle;resizable=0;points=[];autosize=1;strokeColor=none;fillColor=none;" parent="1" vertex="1">
          <mxGeometry x="345" y="200" width="30" height="30" as="geometry" />
        </mxCell>
        <mxCell id="fyv-fUSolpa7-RwwBOui-12" value="" style="endArrow=classic;html=1;rounded=0;fontSize=14;fillColor=#f8cecc;strokeColor=#b85450;" parent="1" edge="1">
          <mxGeometry width="50" height="50" relative="1" as="geometry">
            <mxPoint x="399" y="230" as="sourcePoint" />
            <mxPoint x="399" y="260" as="targetPoint" />
          </mxGeometry>
        </mxCell>
        <mxCell id="fyv-fUSolpa7-RwwBOui-14" value="" style="shape=curlyBracket;whiteSpace=wrap;html=1;rounded=1;fontSize=14;rotation=90;fillColor=#f8cecc;strokeColor=#b85450;" parent="1" vertex="1">
          <mxGeometry x="310" y="85" width="20" height="160" as="geometry" />
        </mxCell>
      </root>
    </mxGraphModel>
  </diagram>
  <diagram id="vWjaBwTuengcA2ifeVP7" name="第 3 页">
    <mxGraphModel dx="1438" dy="547" grid="1" gridSize="10" guides="1" tooltips="1" connect="1" arrows="1" fold="1" page="0" pageScale="1" pageWidth="827" pageHeight="1169" math="0" shadow="0">
      <root>
        <mxCell id="0" />
        <mxCell id="1" parent="0" />
        <mxCell id="zQmfHEC3-K0LePUw_Hsg-6" value="&lt;font style=&quot;font-size: 14px;&quot;&gt;OnSceneLoaded&lt;/font&gt;" style="rounded=1;whiteSpace=wrap;html=1;labelBackgroundColor=#FFFFFF;fontSize=16;fontColor=#000000;" vertex="1" parent="1">
          <mxGeometry x="220" y="230" width="120" height="60" as="geometry" />
        </mxCell>
        <mxCell id="zQmfHEC3-K0LePUw_Hsg-7" value="&lt;font style=&quot;font-size: 14px;&quot;&gt;Check_UI_visibility&lt;/font&gt;" style="rounded=1;whiteSpace=wrap;html=1;labelBackgroundColor=#FFFFFF;fontSize=16;fontColor=#000000;" vertex="1" parent="1">
          <mxGeometry x="460" y="230" width="120" height="60" as="geometry" />
        </mxCell>
        <mxCell id="zQmfHEC3-K0LePUw_Hsg-8" value="&lt;font style=&quot;font-size: 14px;&quot;&gt;SpawnDriverPerceptionCars&lt;/font&gt;" style="rounded=1;whiteSpace=wrap;html=1;labelBackgroundColor=#FFFFFF;fontSize=16;fontColor=#000000;" vertex="1" parent="1">
          <mxGeometry x="220" y="330" width="120" height="60" as="geometry" />
        </mxCell>
        <mxCell id="zQmfHEC3-K0LePUw_Hsg-9" value="&lt;font style=&quot;font-size: 14px;&quot;&gt;LoadDriverPerceptionInitData&lt;/font&gt;" style="rounded=1;whiteSpace=wrap;html=1;labelBackgroundColor=#FFFFFF;fontSize=16;fontColor=#000000;" vertex="1" parent="1">
          <mxGeometry x="-50" y="430" width="120" height="60" as="geometry" />
        </mxCell>
        <mxCell id="zQmfHEC3-K0LePUw_Hsg-10" value="&lt;font style=&quot;font-size: 14px;&quot;&gt;InitMonitor&lt;/font&gt;" style="rounded=1;whiteSpace=wrap;html=1;labelBackgroundColor=#FFFFFF;fontSize=16;fontColor=#000000;" vertex="1" parent="1">
          <mxGeometry x="490" y="430" width="120" height="60" as="geometry" />
        </mxCell>
        <mxCell id="zQmfHEC3-K0LePUw_Hsg-13" value="" style="endArrow=none;html=1;rounded=0;fontSize=16;fontColor=#000000;entryX=0.5;entryY=1;entryDx=0;entryDy=0;" edge="1" parent="1" source="zQmfHEC3-K0LePUw_Hsg-8" target="zQmfHEC3-K0LePUw_Hsg-6">
          <mxGeometry width="50" height="50" relative="1" as="geometry">
            <mxPoint x="390" y="370" as="sourcePoint" />
            <mxPoint x="440" y="320" as="targetPoint" />
          </mxGeometry>
        </mxCell>
        <mxCell id="zQmfHEC3-K0LePUw_Hsg-16" value="&lt;font style=&quot;font-size: 14px;&quot;&gt;LoadExperienceScenes&lt;/font&gt;" style="rounded=1;whiteSpace=wrap;html=1;labelBackgroundColor=#FFFFFF;fontSize=16;fontColor=#000000;" vertex="1" parent="1">
          <mxGeometry x="340" y="430" width="120" height="60" as="geometry" />
        </mxCell>
        <mxCell id="zQmfHEC3-K0LePUw_Hsg-20" value="" style="endArrow=none;dashed=1;html=1;rounded=0;fontSize=16;fontColor=#000000;exitX=1;exitY=0.5;exitDx=0;exitDy=0;entryX=0;entryY=0.25;entryDx=0;entryDy=0;" edge="1" parent="1" source="zQmfHEC3-K0LePUw_Hsg-10" target="zQmfHEC3-K0LePUw_Hsg-24">
          <mxGeometry width="50" height="50" relative="1" as="geometry">
            <mxPoint x="520" y="530" as="sourcePoint" />
            <mxPoint x="650" y="460" as="targetPoint" />
            <Array as="points">
              <mxPoint x="680" y="460" />
              <mxPoint x="680" y="260" />
              <mxPoint x="680" y="133" />
            </Array>
          </mxGeometry>
        </mxCell>
        <mxCell id="zQmfHEC3-K0LePUw_Hsg-21" value="&lt;font style=&quot;font-size: 14px;&quot;&gt;FixedUpdate&lt;/font&gt;" style="rounded=1;whiteSpace=wrap;html=1;labelBackgroundColor=#FFFFFF;fontSize=16;fontColor=#000000;" vertex="1" parent="1">
          <mxGeometry x="760" y="230" width="120" height="60" as="geometry" />
        </mxCell>
        <mxCell id="zQmfHEC3-K0LePUw_Hsg-23" value="EnvManager" style="swimlane;childLayout=stackLayout;horizontal=1;startSize=30;horizontalStack=0;rounded=1;fontSize=14;fontStyle=0;strokeWidth=2;resizeParent=0;resizeLast=1;shadow=0;dashed=0;align=center;labelBackgroundColor=#FFFFFF;fontColor=#000000;" vertex="1" parent="1">
          <mxGeometry x="740" y="80" width="160" height="120" as="geometry" />
        </mxCell>
        <mxCell id="zQmfHEC3-K0LePUw_Hsg-24" value="m_cars[]&#xa;m_env{}&#xa;" style="align=left;strokeColor=none;fillColor=none;spacingLeft=4;fontSize=12;verticalAlign=top;resizable=0;rotatable=0;part=1;labelBackgroundColor=#FFFFFF;fontColor=#000000;" vertex="1" parent="zQmfHEC3-K0LePUw_Hsg-23">
          <mxGeometry y="30" width="160" height="90" as="geometry" />
        </mxCell>
        <mxCell id="zQmfHEC3-K0LePUw_Hsg-25" value="&lt;font style=&quot;font-size: 14px;&quot;&gt;WhenSceneRunning&lt;/font&gt;" style="rounded=1;whiteSpace=wrap;html=1;labelBackgroundColor=#FFFFFF;fontSize=16;fontColor=#000000;" vertex="1" parent="1">
          <mxGeometry x="760" y="340" width="120" height="60" as="geometry" />
        </mxCell>
        <mxCell id="zQmfHEC3-K0LePUw_Hsg-26" value="" style="endArrow=none;html=1;rounded=0;fontSize=16;fontColor=#000000;entryX=0.5;entryY=1;entryDx=0;entryDy=0;" edge="1" parent="1" source="zQmfHEC3-K0LePUw_Hsg-25" target="zQmfHEC3-K0LePUw_Hsg-21">
          <mxGeometry width="50" height="50" relative="1" as="geometry">
            <mxPoint x="930" y="320" as="sourcePoint" />
            <mxPoint x="980" y="270" as="targetPoint" />
          </mxGeometry>
        </mxCell>
        <mxCell id="zQmfHEC3-K0LePUw_Hsg-27" value="Initializer" style="swimlane;childLayout=stackLayout;horizontal=1;startSize=30;horizontalStack=0;rounded=1;fontSize=14;fontStyle=0;strokeWidth=2;resizeParent=0;resizeLast=1;shadow=0;dashed=0;align=center;labelBackgroundColor=#FFFFFF;fontColor=#000000;" vertex="1" parent="1">
          <mxGeometry x="200" y="80" width="160" height="120" as="geometry" />
        </mxCell>
        <mxCell id="zQmfHEC3-K0LePUw_Hsg-29" value="&lt;font style=&quot;font-size: 11px;&quot;&gt;New CognitiveDriverModel&lt;br&gt;New CognitiveDriverAssistSystem&lt;br&gt;&lt;/font&gt;" style="rounded=1;whiteSpace=wrap;html=1;labelBackgroundColor=#FFFFFF;fontSize=16;fontColor=#000000;" vertex="1" parent="1">
          <mxGeometry x="110" y="430" width="200" height="60" as="geometry" />
        </mxCell>
        <mxCell id="zQmfHEC3-K0LePUw_Hsg-34" value="CognitiveDriverModel" style="swimlane;childLayout=stackLayout;horizontal=1;startSize=30;horizontalStack=0;rounded=1;fontSize=14;fontStyle=0;strokeWidth=2;resizeParent=0;resizeLast=1;shadow=0;dashed=0;align=center;labelBackgroundColor=#FFFFFF;fontColor=#000000;" vertex="1" parent="1">
          <mxGeometry x="160" y="610" width="200" height="230" as="geometry" />
        </mxCell>
        <mxCell id="zQmfHEC3-K0LePUw_Hsg-35" value="id&#xa;v_Natural&#xa;actions{int,Action}&#xa;Action currentAction&#xa;Node previousObservation&#xa;Node observation&#xa;Node perception&#xa;Node predictedPerception&#xa;strategies{int,Distribution&lt;Action&gt;}&#xa;vDictionary{int,double}&#xa;emuerationForest[DM_Tree]" style="align=left;strokeColor=none;fillColor=none;spacingLeft=4;fontSize=12;verticalAlign=top;resizable=0;rotatable=0;part=1;labelBackgroundColor=#FFFFFF;fontColor=#000000;" vertex="1" parent="zQmfHEC3-K0LePUw_Hsg-34">
          <mxGeometry y="30" width="200" height="200" as="geometry" />
        </mxCell>
        <mxCell id="zQmfHEC3-K0LePUw_Hsg-37" value="" style="endArrow=none;html=1;fontSize=11;fontColor=#000000;fillColor=#dae8fc;strokeColor=#6c8ebf;rounded=1;" edge="1" parent="1">
          <mxGeometry width="50" height="50" relative="1" as="geometry">
            <mxPoint x="640" y="40" as="sourcePoint" />
            <mxPoint x="640" y="40" as="targetPoint" />
            <Array as="points">
              <mxPoint x="640" y="520" />
              <mxPoint x="-120" y="520" />
              <mxPoint x="-120" y="40" />
            </Array>
          </mxGeometry>
        </mxCell>
        <mxCell id="zQmfHEC3-K0LePUw_Hsg-40" value="&lt;font style=&quot;font-size: 12px;&quot;&gt;GetDriverObservation&lt;/font&gt;" style="rounded=1;whiteSpace=wrap;html=1;labelBackgroundColor=#FFFFFF;fontSize=11;fontColor=#000000;" vertex="1" parent="1">
          <mxGeometry x="400" y="640" width="120" height="60" as="geometry" />
        </mxCell>
        <mxCell id="zQmfHEC3-K0LePUw_Hsg-42" value="&lt;font style=&quot;font-size: 14px;&quot;&gt;runOnce&lt;/font&gt;" style="rounded=1;whiteSpace=wrap;html=1;labelBackgroundColor=#FFFFFF;fontSize=11;fontColor=#000000;" vertex="1" parent="1">
          <mxGeometry x="780" y="640" width="120" height="60" as="geometry" />
        </mxCell>
        <mxCell id="zQmfHEC3-K0LePUw_Hsg-44" value="" style="shape=curlyBracket;whiteSpace=wrap;html=1;rounded=1;labelBackgroundColor=#FFFFFF;fontSize=14;fontColor=#000000;rotation=90;size=0.5;" vertex="1" parent="1">
          <mxGeometry x="825.5" y="417.5" width="30" height="595" as="geometry" />
        </mxCell>
        <mxCell id="zQmfHEC3-K0LePUw_Hsg-45" value="previousObservation = observation&lt;br&gt;observation = obs" style="text;html=1;align=center;verticalAlign=middle;resizable=0;points=[];autosize=1;strokeColor=none;fillColor=none;fontSize=14;fontColor=#000000;" vertex="1" parent="1">
          <mxGeometry x="380" y="730" width="240" height="50" as="geometry" />
        </mxCell>
        <mxCell id="zQmfHEC3-K0LePUw_Hsg-47" value="obs" style="text;html=1;align=center;verticalAlign=middle;resizable=0;points=[];autosize=1;strokeColor=none;fillColor=none;fontSize=14;fontColor=#000000;" vertex="1" parent="1">
          <mxGeometry x="620" y="640" width="50" height="30" as="geometry" />
        </mxCell>
        <mxCell id="zQmfHEC3-K0LePUw_Hsg-48" value="&lt;font style=&quot;font-size: 12px;&quot;&gt;ObservationCompletion&lt;/font&gt;" style="rounded=1;whiteSpace=wrap;html=1;labelBackgroundColor=#FFFFFF;fontSize=14;fontColor=#000000;" vertex="1" parent="1">
          <mxGeometry x="430" y="775" width="120" height="60" as="geometry" />
        </mxCell>
        <mxCell id="zQmfHEC3-K0LePUw_Hsg-49" value="" style="endArrow=classic;html=1;rounded=0;fontSize=12;fontColor=#000000;entryX=0;entryY=0.5;entryDx=0;entryDy=0;exitX=1;exitY=0.5;exitDx=0;exitDy=0;" edge="1" parent="1" source="zQmfHEC3-K0LePUw_Hsg-6" target="zQmfHEC3-K0LePUw_Hsg-7">
          <mxGeometry width="50" height="50" relative="1" as="geometry">
            <mxPoint x="430" y="220" as="sourcePoint" />
            <mxPoint x="480" y="170" as="targetPoint" />
          </mxGeometry>
        </mxCell>
        <mxCell id="zQmfHEC3-K0LePUw_Hsg-50" value="" style="shape=curlyBracket;whiteSpace=wrap;html=1;rounded=1;labelBackgroundColor=#FFFFFF;fontSize=12;fontColor=#000000;rotation=90;" vertex="1" parent="1">
          <mxGeometry x="270" y="135" width="20" height="550" as="geometry" />
        </mxCell>
        <mxCell id="zQmfHEC3-K0LePUw_Hsg-51" value="" style="endArrow=classic;html=1;rounded=0;fontSize=12;fontColor=#000000;entryX=0;entryY=0.5;entryDx=0;entryDy=0;exitX=1;exitY=0.5;exitDx=0;exitDy=0;" edge="1" parent="1" source="zQmfHEC3-K0LePUw_Hsg-40" target="zQmfHEC3-K0LePUw_Hsg-42">
          <mxGeometry width="50" height="50" relative="1" as="geometry">
            <mxPoint x="630" y="620" as="sourcePoint" />
            <mxPoint x="680" y="570" as="targetPoint" />
          </mxGeometry>
        </mxCell>
        <mxCell id="zQmfHEC3-K0LePUw_Hsg-52" value="" style="endArrow=none;dashed=1;html=1;rounded=0;fontSize=12;fontColor=#000000;exitX=0.5;exitY=0;exitDx=0;exitDy=0;" edge="1" parent="1" source="zQmfHEC3-K0LePUw_Hsg-34">
          <mxGeometry width="50" height="50" relative="1" as="geometry">
            <mxPoint x="230" y="600" as="sourcePoint" />
            <mxPoint x="210" y="490" as="targetPoint" />
          </mxGeometry>
        </mxCell>
        <mxCell id="zQmfHEC3-K0LePUw_Hsg-53" value="DivingStyle&lt;br&gt;PerceptionUpdate" style="rounded=1;whiteSpace=wrap;html=1;labelBackgroundColor=#FFFFFF;fontSize=12;fontColor=#000000;" vertex="1" parent="1">
          <mxGeometry x="640" y="730" width="120" height="60" as="geometry" />
        </mxCell>
        <mxCell id="zQmfHEC3-K0LePUw_Hsg-54" value="SearchV({int,Action})" style="rounded=1;whiteSpace=wrap;html=1;labelBackgroundColor=#FFFFFF;fontSize=12;fontColor=#000000;" vertex="1" parent="1">
          <mxGeometry x="690.5" y="820" width="120" height="60" as="geometry" />
        </mxCell>
        <mxCell id="zQmfHEC3-K0LePUw_Hsg-55" value="" style="shape=curlyBracket;whiteSpace=wrap;html=1;rounded=1;labelBackgroundColor=#FFFFFF;fontSize=12;fontColor=#000000;rotation=90;" vertex="1" parent="1">
          <mxGeometry x="690" y="745" width="20" height="120" as="geometry" />
        </mxCell>
        <mxCell id="zQmfHEC3-K0LePUw_Hsg-56" value="vDictionary[i] = vNatural&lt;br&gt;// init driver&#39;s v" style="text;html=1;align=center;verticalAlign=middle;resizable=0;points=[];autosize=1;strokeColor=none;fillColor=none;fontSize=12;fontColor=#000000;" vertex="1" parent="1">
          <mxGeometry x="550" y="820" width="150" height="40" as="geometry" />
        </mxCell>
        <mxCell id="zQmfHEC3-K0LePUw_Hsg-57" value="SearchV(List&amp;lt;DM_Tree&amp;gt;,carId,trueAction)" style="rounded=1;whiteSpace=wrap;html=1;labelBackgroundColor=#FFFFFF;fontSize=12;fontColor=#000000;" vertex="1" parent="1">
          <mxGeometry x="691" y="910" width="120" height="60" as="geometry" />
        </mxCell>
        <mxCell id="zQmfHEC3-K0LePUw_Hsg-58" value="" style="endArrow=none;html=1;rounded=0;fontSize=12;fontColor=#000000;entryX=0.5;entryY=1;entryDx=0;entryDy=0;" edge="1" parent="1" source="zQmfHEC3-K0LePUw_Hsg-57" target="zQmfHEC3-K0LePUw_Hsg-54">
          <mxGeometry width="50" height="50" relative="1" as="geometry">
            <mxPoint x="660" y="970" as="sourcePoint" />
            <mxPoint x="795.5" y="880" as="targetPoint" />
          </mxGeometry>
        </mxCell>
        <mxCell id="zQmfHEC3-K0LePUw_Hsg-59" value="// init gaussedV[] &amp;amp;&amp;amp;&lt;br&gt;vDictionaryBuffer{int,double}[]" style="text;html=1;align=center;verticalAlign=middle;resizable=0;points=[];autosize=1;strokeColor=none;fillColor=none;fontSize=12;fontColor=#000000;" vertex="1" parent="1">
          <mxGeometry x="425.5" y="1010" width="180" height="40" as="geometry" />
        </mxCell>
        <mxCell id="zQmfHEC3-K0LePUw_Hsg-60" value="DrivingStrategyPrediction(List&amp;lt;DM_Tree&amp;gt;, vDictionaryBuffer{int,double})" style="rounded=1;whiteSpace=wrap;html=1;labelBackgroundColor=#FFFFFF;fontSize=12;fontColor=#000000;" vertex="1" parent="1">
          <mxGeometry x="666" y="1000" width="120" height="60" as="geometry" />
        </mxCell>
        <mxCell id="zQmfHEC3-K0LePUw_Hsg-61" value="CalculateLoss(strategy, trueAction)" style="rounded=1;whiteSpace=wrap;html=1;labelBackgroundColor=#FFFFFF;fontSize=12;fontColor=#000000;" vertex="1" parent="1">
          <mxGeometry x="855.5" y="1000" width="120" height="60" as="geometry" />
        </mxCell>
        <mxCell id="zQmfHEC3-K0LePUw_Hsg-62" value="" style="shape=curlyBracket;whiteSpace=wrap;html=1;rounded=1;labelBackgroundColor=#FFFFFF;fontSize=12;fontColor=#000000;rotation=90;" vertex="1" parent="1">
          <mxGeometry x="720.5" y="775" width="20" height="430" as="geometry" />
        </mxCell>
        <mxCell id="zQmfHEC3-K0LePUw_Hsg-63" value="" style="endArrow=none;html=1;rounded=0;fontSize=12;fontColor=#000000;entryX=0.5;entryY=1;entryDx=0;entryDy=0;" edge="1" parent="1" target="zQmfHEC3-K0LePUw_Hsg-60">
          <mxGeometry width="50" height="50" relative="1" as="geometry">
            <mxPoint x="726" y="1130" as="sourcePoint" />
            <mxPoint x="655.5" y="1090" as="targetPoint" />
          </mxGeometry>
        </mxCell>
        <mxCell id="zQmfHEC3-K0LePUw_Hsg-64" value="Environment&lt;br&gt;PerceptionUpdate" style="rounded=1;whiteSpace=wrap;html=1;labelBackgroundColor=#FFFFFF;fontSize=12;fontColor=#000000;" vertex="1" parent="1">
          <mxGeometry x="910" y="730" width="120" height="60" as="geometry" />
        </mxCell>
        <mxCell id="zQmfHEC3-K0LePUw_Hsg-65" value="EnvironmentPerception&lt;br&gt;UpdateActionCheck" style="rounded=1;whiteSpace=wrap;html=1;labelBackgroundColor=#FFFFFF;fontSize=12;fontColor=#000000;" vertex="1" parent="1">
          <mxGeometry x="840" y="820" width="120" height="60" as="geometry" />
        </mxCell>
        <mxCell id="zQmfHEC3-K0LePUw_Hsg-66" value="PhysicalUpdate&lt;br&gt;// combine predictedPerception&amp;nbsp;" style="rounded=1;whiteSpace=wrap;html=1;labelBackgroundColor=#FFFFFF;fontSize=12;fontColor=#000000;" vertex="1" parent="1">
          <mxGeometry x="975.5" y="820" width="120" height="60" as="geometry" />
        </mxCell>
        <mxCell id="zQmfHEC3-K0LePUw_Hsg-67" value="" style="shape=curlyBracket;whiteSpace=wrap;html=1;rounded=1;labelBackgroundColor=#FFFFFF;fontSize=12;fontColor=#000000;rotation=90;" vertex="1" parent="1">
          <mxGeometry x="960" y="730" width="20" height="150" as="geometry" />
        </mxCell>
      </root>
    </mxGraphModel>
  </diagram>
</mxfile>
